<svg width="14" height="17" viewBox="0 0 14 17" fill="none" xmlns="http://www.w3.org/2000/svg">
<path d="M5.5 1.39307H8.5C8.63261 1.39307 8.75979 1.44574 8.85355 1.53951C8.94732 1.63328 9 1.76046 9 1.89307V2.89307H5V1.89307C5 1.76046 5.05268 1.63328 5.14645 1.53951C5.24021 1.44574 5.36739 1.39307 5.5 1.39307ZM10 2.89307V1.89307C10 1.49524 9.84196 1.11371 9.56066 0.832406C9.27936 0.551102 8.89782 0.393066 8.5 0.393066L5.5 0.393066C5.10218 0.393066 4.72064 0.551102 4.43934 0.832406C4.15804 1.11371 4 1.49524 4 1.89307V2.89307H1.506C1.50267 2.89304 1.49933 2.89304 1.496 2.89307H0.5C0.367392 2.89307 0.240215 2.94574 0.146447 3.03951C0.0526784 3.13328 0 3.26046 0 3.39307C0 3.52567 0.0526784 3.65285 0.146447 3.74662C0.240215 3.84039 0.367392 3.89307 0.5 3.89307H1.038L1.891 14.5531C1.93122 15.0543 2.15875 15.5219 2.52827 15.8629C2.8978 16.2039 3.38219 16.3932 3.885 16.3931H10.115C10.6178 16.3932 11.1022 16.2039 11.4717 15.8629C11.8412 15.5219 12.0688 15.0543 12.109 14.5531L12.962 3.89307H13.5C13.6326 3.89307 13.7598 3.84039 13.8536 3.74662C13.9473 3.65285 14 3.52567 14 3.39307C14 3.26046 13.9473 3.13328 13.8536 3.03951C13.7598 2.94574 13.6326 2.89307 13.5 2.89307H12.505C12.5017 2.89304 12.4983 2.89304 12.495 2.89307H10ZM11.958 3.89307L11.112 14.4731C11.0919 14.7237 10.9781 14.9575 10.7934 15.128C10.6086 15.2985 10.3664 15.3931 10.115 15.3931H3.885C3.6336 15.3931 3.3914 15.2985 3.20664 15.128C3.02188 14.9575 2.90811 14.7237 2.888 14.4731L2.042 3.89307H11.958ZM4.471 4.89307C4.60333 4.88542 4.73329 4.93063 4.8323 5.01876C4.93131 5.1069 4.99127 5.23074 4.999 5.36307L5.499 13.8631C5.50425 13.9938 5.45802 14.1215 5.37022 14.2185C5.28242 14.3156 5.16006 14.3744 5.02941 14.3822C4.89876 14.3901 4.77024 14.3464 4.67144 14.2606C4.57265 14.1747 4.51145 14.0535 4.501 13.9231L4 5.42307C3.99594 5.35738 4.00489 5.29154 4.02633 5.22932C4.04777 5.16709 4.08129 5.10972 4.12495 5.06048C4.16862 5.01124 4.22158 4.9711 4.28079 4.94237C4.34 4.91365 4.4043 4.89689 4.47 4.89307H4.471ZM9.529 4.89307C9.5947 4.89689 9.659 4.91365 9.71821 4.94237C9.77742 4.9711 9.83038 5.01124 9.87405 5.06048C9.91771 5.10972 9.95123 5.16709 9.97267 5.22932C9.99411 5.29154 10.0031 5.35738 9.999 5.42307L9.499 13.9231C9.49633 13.9895 9.48044 14.0548 9.45224 14.115C9.42405 14.1752 9.38413 14.2292 9.33481 14.2738C9.28549 14.3184 9.22777 14.3527 9.16503 14.3748C9.10228 14.3968 9.03578 14.4061 8.9694 14.4021C8.90302 14.3981 8.8381 14.3809 8.77845 14.3515C8.7188 14.3221 8.6656 14.2812 8.62199 14.231C8.57837 14.1808 8.5452 14.1224 8.52443 14.0592C8.50365 13.996 8.49569 13.9294 8.501 13.8631L9.001 5.36307C9.00873 5.23074 9.06869 5.1069 9.1677 5.01876C9.26671 4.93063 9.39667 4.88542 9.529 4.89307ZM7 4.89307C7.13261 4.89307 7.25979 4.94574 7.35355 5.03951C7.44732 5.13328 7.5 5.26046 7.5 5.39307V13.8931C7.5 14.0257 7.44732 14.1529 7.35355 14.2466C7.25979 14.3404 7.13261 14.3931 7 14.3931C6.86739 14.3931 6.74021 14.3404 6.64645 14.2466C6.55268 14.1529 6.5 14.0257 6.5 13.8931V5.39307C6.5 5.26046 6.55268 5.13328 6.64645 5.03951C6.74021 4.94574 6.86739 4.89307 7 4.89307Z" fill="white"/>
</svg>
